<svg width="34" height="34" viewBox="0 0 34 34" fill="none" xmlns="http://www.w3.org/2000/svg">
<rect width="34" height="34" fill="#DA291F"/>
<path d="M19.3318 12.582H21.3569C21.4378 12.582 21.5152 12.5499 21.5724 12.4928C21.6295 12.4357 21.6616 12.3582 21.6616 12.2773C21.6616 12.1965 21.6295 12.119 21.5724 12.0619C21.5152 12.0048 21.4378 11.9727 21.3569 11.9727H19.3318C19.251 11.9727 19.1735 12.0048 19.1163 12.0619C19.0592 12.119 19.0271 12.1965 19.0271 12.2773C19.0271 12.3582 19.0592 12.4357 19.1163 12.4928C19.1735 12.5499 19.251 12.582 19.3318 12.582Z" fill="white"/>
<path d="M24.1271 14.4609H19.3318C19.251 14.4609 19.1735 14.493 19.1163 14.5502C19.0592 14.6073 19.0271 14.6848 19.0271 14.7656C19.0271 14.8464 19.0592 14.9239 19.1163 14.9811C19.1735 15.0382 19.251 15.0703 19.3318 15.0703H24.1271C24.2079 15.0703 24.2854 15.0382 24.3425 14.9811C24.3996 14.9239 24.4317 14.8464 24.4317 14.7656C24.4317 14.6848 24.3996 14.6073 24.3425 14.5502C24.2854 14.493 24.2079 14.4609 24.1271 14.4609Z" fill="white"/>
<path d="M24.1271 16.9492H19.3318C19.251 16.9492 19.1735 16.9813 19.1163 17.0385C19.0592 17.0956 19.0271 17.1731 19.0271 17.2539C19.0271 17.3347 19.0592 17.4122 19.1163 17.4694C19.1735 17.5265 19.251 17.5586 19.3318 17.5586H24.1271C24.2079 17.5586 24.2854 17.5265 24.3425 17.4694C24.3996 17.4122 24.4317 17.3347 24.4317 17.2539C24.4317 17.1731 24.3996 17.0956 24.3425 17.0385C24.2854 16.9813 24.2079 16.9492 24.1271 16.9492Z" fill="white"/>
<path d="M24.1271 19.4375H19.3318C19.251 19.4375 19.1735 19.4696 19.1163 19.5267C19.0592 19.5839 19.0271 19.6614 19.0271 19.7422C19.0271 19.823 19.0592 19.9005 19.1163 19.9576C19.1735 20.0148 19.251 20.0469 19.3318 20.0469H24.1271C24.2079 20.0469 24.2854 20.0148 24.3425 19.9576C24.3996 19.9005 24.4317 19.823 24.4317 19.7422C24.4317 19.6614 24.3996 19.5839 24.3425 19.5267C24.2854 19.4696 24.2079 19.4375 24.1271 19.4375Z" fill="white"/>
<path d="M14.6681 16.9492H9.8728C9.79199 16.9492 9.7145 16.9813 9.65736 17.0385C9.60022 17.0956 9.56812 17.1731 9.56812 17.2539C9.56812 17.3347 9.60022 17.4122 9.65736 17.4694C9.7145 17.5265 9.79199 17.5586 9.8728 17.5586H14.6681C14.7489 17.5586 14.8264 17.5265 14.8835 17.4694C14.9407 17.4122 14.9728 17.3347 14.9728 17.2539C14.9728 17.1731 14.9407 17.0956 14.8835 17.0385C14.8264 16.9813 14.7489 16.9492 14.6681 16.9492Z" fill="white"/>
<path d="M14.6681 19.4375H9.8728C9.79199 19.4375 9.7145 19.4696 9.65736 19.5267C9.60022 19.5839 9.56812 19.6614 9.56812 19.7422C9.56812 19.823 9.60022 19.9005 9.65736 19.9576C9.7145 20.0148 9.79199 20.0469 9.8728 20.0469H14.6681C14.7489 20.0469 14.8264 20.0148 14.8835 19.9576C14.9407 19.9005 14.9728 19.823 14.9728 19.7422C14.9728 19.6614 14.9407 19.5839 14.8835 19.5267C14.8264 19.4696 14.7489 19.4375 14.6681 19.4375Z" fill="white"/>
<path d="M27.9449 10.7539H26.8008V10.2659C26.8016 9.76471 26.6039 9.28359 26.251 8.92777C25.898 8.57195 25.4185 8.3704 24.9173 8.36719H19.7671C19.5468 8.36867 19.3284 8.409 19.1221 8.48632L17.4367 9.10138C17.1547 9.20416 16.8456 9.20463 16.5633 9.1027L14.8786 8.48591C14.672 8.40868 14.4535 8.36849 14.2329 8.36719H11.2786C11.1978 8.36719 11.1203 8.39929 11.0632 8.45643C11.006 8.51357 10.9739 8.59107 10.9739 8.67188C10.9739 8.75268 11.006 8.83018 11.0632 8.88732C11.1203 8.94446 11.1978 8.97656 11.2786 8.97656H14.2329C14.3822 8.97815 14.5301 9.00606 14.6696 9.05903L16.3551 9.67414C16.4654 9.71497 16.5793 9.7454 16.6953 9.76504V23.7322C16.6506 23.7215 16.6066 23.7084 16.5633 23.693L14.8786 23.0938C14.6711 23.022 14.4525 22.9876 14.2329 22.9922H9.0827C8.3779 22.9922 7.80859 22.393 7.80859 21.6881V10.2659C7.80759 9.92627 7.94102 9.60004 8.17974 9.35847C8.41846 9.11689 8.74308 8.97959 9.0827 8.97656H10.3984C10.4792 8.97656 10.5567 8.94446 10.6139 8.88732C10.671 8.83018 10.7031 8.75268 10.7031 8.67188C10.7031 8.59107 10.671 8.51357 10.6139 8.45643C10.5567 8.39929 10.4792 8.36719 10.3984 8.36719H9.0827C8.58152 8.3704 8.102 8.57195 7.74904 8.92777C7.39608 9.28359 7.19839 9.76471 7.19922 10.2659V10.7539H6.05512C5.55111 10.7539 5.11719 11.1756 5.11719 11.6796V24.7081C5.11719 25.2121 5.55111 25.6328 6.05512 25.6328H15.7812C15.818 25.631 15.8541 25.6226 15.8879 25.6081C16.6041 25.3354 17.3957 25.3358 18.1116 25.6095C18.1456 25.6236 18.1819 25.6315 18.2188 25.6328H27.9449C28.4489 25.6328 28.8828 25.2121 28.8828 24.7081V23.2292C28.8828 23.1484 28.8507 23.0709 28.7936 23.0137C28.7364 22.9566 28.6589 22.9245 28.5781 22.9245C28.4973 22.9245 28.4198 22.9566 28.3627 23.0137C28.3055 23.0709 28.2734 23.1484 28.2734 23.2292V24.7081C28.2684 24.7923 28.2317 24.8716 28.1708 24.93C28.11 24.9885 28.0293 25.0218 27.9449 25.0234H18.5742V23.9339L19.3392 23.6657C19.4768 23.6187 19.6218 23.597 19.7671 23.6016H24.9173C25.9583 23.6016 26.8008 22.7292 26.8008 21.6881V11.3633H27.9449C28.0294 11.3651 28.1101 11.3987 28.171 11.4573C28.2318 11.5159 28.2684 11.5953 28.2734 11.6796V22.0949C28.2734 22.1757 28.3055 22.2532 28.3627 22.3103C28.4198 22.3675 28.4973 22.3996 28.5781 22.3996C28.6589 22.3996 28.7364 22.3675 28.7936 22.3103C28.8507 22.2532 28.8828 22.1757 28.8828 22.0949V11.6796C28.8828 11.1756 28.4489 10.7539 27.9449 10.7539ZM15.4258 25.0234H6.05512C5.97073 25.0218 5.89005 24.9885 5.82916 24.93C5.76826 24.8716 5.73163 24.7923 5.72656 24.7081V11.6796C5.73158 11.5953 5.76817 11.5159 5.82904 11.4573C5.88992 11.3987 5.97063 11.3651 6.05512 11.3633H7.19922V21.6881C7.19922 22.7291 8.04188 23.6016 9.0827 23.6016H14.2329C14.3785 23.597 14.5237 23.6189 14.6616 23.666L15.4258 23.9339V25.0234ZM17.9648 24.9131C17.3318 24.7515 16.6682 24.7515 16.0352 24.9131V24.1554L16.347 24.2657C16.5549 24.341 16.7743 24.3795 16.9954 24.3795C17.2189 24.3796 17.4406 24.3411 17.651 24.2657L17.9648 24.1554V24.9131ZM26.1914 21.6881C26.1914 22.393 25.6221 22.9922 24.9173 22.9922H19.7671C19.5478 22.9876 19.3295 23.0218 19.1221 23.0933L17.4367 23.6994C17.3933 23.7127 17.3493 23.7236 17.3047 23.7321V9.76504C17.4206 9.7463 17.5345 9.71676 17.6449 9.67679L19.3309 9.05873C19.4703 9.0059 19.618 8.97808 19.7671 8.97656H24.9173C25.2569 8.97959 25.5815 9.11689 25.8203 9.35847C26.059 9.60004 26.1924 9.92627 26.1914 10.2659V21.6881Z" fill="white"/>
<path d="M14.6641 11.9727H9.89062C9.80982 11.9727 9.73232 12.0048 9.67518 12.0619C9.61804 12.119 9.58594 12.1965 9.58594 12.2773V14.9688C9.58594 15.0496 9.61804 15.1271 9.67518 15.1842C9.73232 15.2413 9.80982 15.2734 9.89062 15.2734H14.6641C14.7449 15.2734 14.8224 15.2413 14.8795 15.1842C14.9366 15.1271 14.9688 15.0496 14.9688 14.9688V12.2773C14.9688 12.1965 14.9366 12.119 14.8795 12.0619C14.8224 12.0048 14.7449 11.9727 14.6641 11.9727ZM14.3594 14.6641H10.1953V12.582H14.3594V14.6641Z" fill="white"/>
</svg>
