<svg width="40" height="40" viewBox="0 0 40 40" fill="none" xmlns="http://www.w3.org/2000/svg">
<g clip-path="url(#clip0_29_342)">
<path d="M39.9366 20.3088C40.0655 19.9972 39.9938 19.6386 39.755 19.4004L24.755 4.40044C24.424 4.08067 23.8964 4.08989 23.5766 4.42091C23.2648 4.74388 23.2648 5.25583 23.5766 5.57872L37.155 19.1571H0.833359C0.373125 19.1572 0 19.5303 0 19.9905C0 20.4508 0.373125 20.8239 0.833359 20.8239H37.155L23.5784 34.4005C23.2473 34.7203 23.2381 35.2478 23.5579 35.5789C23.8777 35.9099 24.4052 35.919 24.7362 35.5993C24.7432 35.5926 24.75 35.5858 24.7567 35.5789L39.7567 20.5789C39.8337 20.5015 39.8949 20.4097 39.9366 20.3088Z" fill="#2196F3"/>
<path d="M24.1666 35.8236C23.7064 35.8245 23.3326 35.452 23.3318 34.9918C23.3314 34.7699 23.4195 34.557 23.5766 34.4003L37.9884 19.9904L23.5766 5.58036C23.2569 5.24934 23.2661 4.72176 23.5971 4.402C23.9201 4.09012 24.432 4.09012 24.7549 4.402L39.7549 19.402C40.0802 19.7274 40.0802 20.2549 39.7549 20.5804L24.7549 35.5804C24.5988 35.7361 24.3873 35.8236 24.1666 35.8236Z" fill="black"/>
<path d="M39.1666 20.8241H0.833359C0.373125 20.8241 0 20.4511 0 19.9908C0 19.5306 0.373125 19.1575 0.833359 19.1575H39.1667C39.627 19.1575 40.0001 19.5306 40.0001 19.9908C40 20.4511 39.6269 20.8241 39.1666 20.8241Z" fill="black"/>
</g>
<defs>
<clipPath id="clip0_29_342">
<rect width="40" height="40" fill="white"/>
</clipPath>
</defs>
</svg>
