<svg width="33" height="33" viewBox="0 0 33 33" fill="none" xmlns="http://www.w3.org/2000/svg">
<g clip-path="url(#clip0_29_688)">
<path d="M12.875 30.875C13.4963 30.875 14 30.3713 14 29.75C14 29.1287 13.4963 28.625 12.875 28.625C12.2537 28.625 11.75 29.1287 11.75 29.75C11.75 30.3713 12.2537 30.875 12.875 30.875Z" stroke="black" stroke-width="1.5" stroke-linecap="round" stroke-linejoin="round"/>
<path d="M28.625 30.875C29.2463 30.875 29.75 30.3713 29.75 29.75C29.75 29.1287 29.2463 28.625 28.625 28.625C28.0037 28.625 27.5 29.1287 27.5 29.75C27.5 30.3713 28.0037 30.875 28.625 30.875Z" stroke="black" stroke-width="1.5" stroke-linecap="round" stroke-linejoin="round"/>
<path d="M3.875 6.125H8.375L11.75 25.25H29.75" stroke="black" stroke-width="1.5" stroke-linecap="round" stroke-linejoin="round"/>
<path d="M11.75 20.75H29.2887C29.4188 20.7501 29.5449 20.7051 29.6456 20.6227C29.7462 20.5402 29.8152 20.4255 29.8407 20.2979L31.8657 10.1729C31.882 10.0912 31.8801 10.007 31.8599 9.92621C31.8397 9.84543 31.8018 9.77014 31.749 9.70576C31.6962 9.64138 31.6298 9.58953 31.5545 9.55395C31.4792 9.51837 31.397 9.49994 31.3137 9.5H9.5" stroke="black" stroke-width="1.5" stroke-linecap="round" stroke-linejoin="round"/>
</g>
<defs>
<clipPath id="clip0_29_688">
<rect width="32" height="32" fill="white" transform="translate(0.5 0.5)"/>
</clipPath>
</defs>
</svg>
