<svg width="26" height="22" viewBox="0 0 26 22" fill="none" xmlns="http://www.w3.org/2000/svg">
<path d="M8.0071 20.625C8.47655 20.625 8.8571 20.2332 8.8571 19.75C8.8571 19.2668 8.47655 18.875 8.0071 18.875C7.53766 18.875 7.1571 19.2668 7.1571 19.75C7.1571 20.2332 7.53766 20.625 8.0071 20.625Z" stroke="white" stroke-width="1.5" stroke-linecap="round" stroke-linejoin="round"/>
<path d="M19.9071 20.625C20.3766 20.625 20.7571 20.2332 20.7571 19.75C20.7571 19.2668 20.3766 18.875 19.9071 18.875C19.4377 18.875 19.0571 19.2668 19.0571 19.75C19.0571 20.2332 19.4377 20.625 19.9071 20.625Z" stroke="white" stroke-width="1.5" stroke-linecap="round" stroke-linejoin="round"/>
<path d="M1.20715 1.375H4.60715L7.15715 16.25H20.7572" stroke="white" stroke-width="1.5" stroke-linecap="round" stroke-linejoin="round"/>
<path d="M7.15715 12.75H20.4087C20.5069 12.7501 20.6022 12.7151 20.6783 12.651C20.7543 12.5868 20.8064 12.4976 20.8257 12.3984L22.3557 4.52336C22.368 4.45986 22.3665 4.39433 22.3513 4.3315C22.336 4.26867 22.3074 4.21011 22.2675 4.16004C22.2276 4.10997 22.1774 4.06964 22.1206 4.04196C22.0637 4.01429 22.0016 3.99996 21.9387 4H5.45715" stroke="white" stroke-width="1.5" stroke-linecap="round" stroke-linejoin="round"/>
</svg>
